<?xml version="1.0" standalone="no"?>
<!DOCTYPE svg PUBLIC "-//W3C//DTD SVG 20010904//EN"
 "http://www.w3.org/TR/2001/REC-SVG-20010904/DTD/svg10.dtd">
<svg version="1.0" xmlns="http://www.w3.org/2000/svg"
 width="1376.000000pt" height="1376.000000pt" viewBox="0 0 1376.000000 1376.000000"
 preserveAspectRatio="xMidYMid meet">
<metadata>
Created by potrace 1.14, written by Peter Selinger 2001-2017
</metadata>
<g transform="translate(0.000000,1376.000000) scale(0.100000,-0.100000)"
fill="#000000" stroke="none">
<path d="M6714 13394 c-43 -24 -79 -44 -81 -44 -2 0 -32 -17 -66 -37 -35 -21
-81 -47 -103 -58 -21 -11 -41 -22 -44 -25 -5 -5 -24 -16 -94 -55 -61 -33 -135
-75 -191 -107 -27 -16 -62 -34 -77 -41 -16 -6 -28 -15 -28 -19 0 -4 -7 -8 -15
-8 -8 0 -15 -5 -15 -11 0 -5 -4 -8 -9 -5 -5 3 -14 -1 -21 -9 -7 -8 -16 -15
-20 -15 -8 0 -129 -67 -180 -99 -14 -8 -27 -16 -30 -16 -3 0 -39 -20 -80 -45
-41 -24 -93 -54 -115 -66 -22 -12 -56 -30 -75 -40 -19 -11 -40 -24 -46 -30 -7
-6 -26 -17 -43 -24 -17 -7 -31 -17 -31 -22 0 -5 -4 -7 -8 -4 -5 3 -24 -5 -43
-16 -46 -29 -288 -166 -374 -213 -38 -21 -72 -41 -75 -44 -3 -3 -21 -14 -40
-23 -34 -17 -75 -40 -213 -119 -38 -21 -73 -39 -78 -39 -5 0 -9 -4 -9 -9 0 -5
-8 -11 -17 -14 -29 -10 -146 -76 -166 -95 -11 -9 -21 -16 -23 -15 -5 3 -38 -9
-44 -17 -3 -3 -43 -27 -90 -53 -47 -26 -107 -60 -135 -75 -69 -40 -111 -64
-175 -99 -30 -17 -84 -47 -118 -67 -35 -20 -68 -36 -73 -36 -5 0 -12 -7 -15
-15 -4 -8 -14 -15 -24 -15 -10 0 -25 -7 -34 -15 -8 -8 -17 -15 -21 -15 -5 0
-53 -27 -288 -162 -65 -37 -122 -68 -127 -68 -5 0 -15 -6 -22 -13 -7 -7 -42
-28 -78 -46 -36 -19 -67 -36 -70 -40 -5 -6 -27 -18 -135 -75 -33 -17 -62 -34
-65 -37 -3 -3 -34 -21 -70 -40 -36 -19 -71 -40 -78 -46 -7 -7 -20 -13 -28 -13
-8 0 -14 -4 -14 -10 0 -5 -5 -10 -10 -10 -9 0 -136 -70 -215 -117 -11 -7 -37
-20 -57 -30 -21 -10 -38 -21 -38 -25 0 -3 -16 -12 -35 -18 -19 -6 -35 -16 -35
-21 0 -6 -4 -7 -10 -4 -5 3 -10 1 -10 -4 0 -6 -5 -11 -11 -11 -6 0 -23 -9 -39
-20 -15 -11 -30 -17 -34 -13 -3 3 -6 1 -6 -5 0 -7 -7 -12 -15 -12 -8 0 -15 -4
-15 -10 0 -5 -3 -9 -7 -8 -13 3 -63 -24 -63 -34 0 -4 -9 -8 -20 -8 -11 0 -20
-4 -20 -9 0 -5 -9 -11 -20 -14 -20 -5 -20 -14 -20 -2911 l0 -2906 2435 -2435
c1339 -1339 2439 -2435 2443 -2435 5 0 1102 1094 2439 2431 l2431 2430 0 2909
0 2910 -27 13 c-14 7 -38 21 -53 31 -16 10 -28 14 -28 10 0 -5 -4 -4 -8 2 -4
6 -43 31 -87 56 -44 25 -98 56 -120 68 -22 13 -60 34 -85 48 -25 13 -70 40
-101 58 -31 19 -62 34 -68 34 -6 0 -11 4 -11 8 0 5 -16 14 -35 22 -19 8 -35
18 -35 22 0 5 -4 7 -9 3 -5 -3 -12 -1 -16 4 -3 5 -18 16 -33 24 -15 7 -45 24
-67 37 -22 12 -65 36 -95 52 -30 17 -59 34 -65 38 -5 4 -35 21 -65 37 -30 17
-172 97 -315 178 -143 81 -282 159 -310 174 -27 14 -51 29 -53 34 -2 4 -8 7
-13 7 -5 0 -27 11 -49 25 -21 13 -67 40 -102 59 -35 18 -112 62 -173 96 -60
34 -130 74 -155 88 -25 13 -71 40 -103 58 -32 19 -62 34 -68 34 -5 0 -9 5 -9
11 0 5 -4 8 -9 5 -5 -4 -11 -3 -13 1 -1 5 -28 21 -58 37 -30 16 -57 32 -60 35
-3 4 -16 12 -30 18 -14 7 -56 30 -95 53 -38 22 -95 53 -125 70 -30 17 -73 41
-95 54 -22 13 -65 36 -95 52 -30 15 -61 34 -68 41 -7 7 -24 16 -38 19 -13 3
-24 10 -24 15 0 5 -7 9 -15 9 -8 0 -15 5 -15 11 0 5 -4 8 -9 4 -5 -3 -15 0
-23 7 -7 7 -31 23 -53 35 -45 23 -77 42 -182 102 -149 85 -205 116 -368 206
-38 21 -72 41 -75 44 -3 3 -23 15 -45 27 -22 12 -62 34 -90 49 -68 38 -475
270 -550 312 -33 19 -68 37 -77 40 -10 3 -18 10 -18 15 0 5 -4 6 -10 3 -5 -3
-10 -1 -10 4 0 6 -7 11 -15 11 -8 0 -15 5 -15 10 0 6 -3 9 -7 8 -12 -3 -83 35
-83 44 0 4 -6 8 -14 8 -7 0 -29 11 -49 24 -19 13 -38 22 -41 18 -3 -3 -6 -1
-6 5 0 27 -44 18 -116 -23z m133 -1014 c26 -16 53 -30 60 -30 7 0 13 -4 13
-10 0 -5 7 -10 15 -10 8 0 15 -5 15 -11 0 -5 4 -8 9 -5 5 3 14 -1 21 -9 7 -8
16 -15 21 -15 4 0 34 -15 66 -34 32 -18 78 -45 103 -58 97 -54 125 -70 136
-79 6 -5 14 -6 17 -2 4 3 7 2 7 -4 0 -5 18 -18 40 -29 22 -10 40 -23 40 -27 0
-5 4 -6 9 -2 5 3 12 1 16 -5 3 -6 21 -17 38 -25 18 -8 50 -25 72 -38 22 -13
60 -35 85 -49 25 -14 62 -35 83 -47 60 -34 430 -243 537 -304 138 -77 177 -99
190 -107 8 -6 31 -18 50 -28 19 -10 52 -28 73 -40 20 -12 53 -31 73 -42 19
-11 124 -70 232 -132 108 -61 215 -122 237 -134 22 -13 54 -30 70 -39 17 -8
48 -26 70 -40 22 -13 54 -31 70 -39 17 -8 57 -31 90 -50 33 -19 83 -47 110
-62 28 -15 52 -30 55 -33 3 -4 20 -13 38 -20 17 -8 32 -17 32 -22 0 -5 9 -9
20 -9 11 0 20 -4 20 -8 0 -4 12 -13 28 -19 28 -12 103 -54 112 -63 3 -3 19
-12 35 -20 55 -28 150 -85 153 -92 2 -5 10 -8 18 -8 8 0 32 -11 52 -25 20 -14
42 -25 49 -25 7 0 13 -4 13 -8 0 -4 12 -13 28 -20 15 -6 41 -20 57 -30 28 -17
54 -32 203 -114 31 -17 73 -41 92 -53 19 -12 64 -37 100 -56 36 -18 70 -39 77
-45 6 -6 25 -17 42 -24 17 -7 31 -18 32 -24 0 -6 2 -19 4 -28 2 -10 0 -18 -5
-18 -4 0 -6 -8 -4 -17 8 -31 9 -383 2 -383 -4 0 -5 -6 -2 -14 8 -22 10 -626 2
-626 -4 0 -5 -6 -2 -14 8 -21 10 -626 3 -626 -4 0 -4 -15 0 -32 4 -18 4 -49 1
-68 -5 -32 -7 -33 -17 -15 -6 11 -10 22 -10 25 2 6 -94 203 -102 210 -3 3 -14
21 -23 40 -21 43 -71 133 -78 140 -10 10 -41 65 -47 83 -3 9 -9 17 -14 17 -5
0 -9 7 -9 15 0 8 -4 15 -10 15 -5 0 -10 6 -10 13 0 7 -8 22 -17 33 -10 10 -24
31 -32 46 -8 15 -22 37 -33 47 -10 11 -18 23 -18 26 0 4 -76 107 -117 160 -16
20 -89 110 -108 134 -176 217 -482 507 -730 691 -33 25 -63 49 -67 55 -5 7 -8
7 -8 0 0 -5 -5 -2 -11 8 -5 9 -16 17 -24 17 -7 0 -15 4 -17 8 -3 9 -148 104
-223 147 -27 16 -52 32 -55 35 -9 12 -368 201 -390 205 -3 1 -23 10 -45 20
-22 10 -42 19 -45 20 -12 4 -49 19 -100 41 -77 32 -239 91 -275 100 -16 4 -35
10 -40 15 -6 4 -22 10 -35 12 -14 2 -32 6 -40 9 -47 18 -148 44 -205 53 -11 2
-20 4 -20 5 0 2 -14 5 -53 14 -13 3 -31 8 -40 10 -16 6 -58 13 -112 21 -14 2
-25 4 -25 5 0 1 -13 3 -30 5 -16 2 -41 6 -55 10 -14 3 -41 8 -60 9 -19 2 -57
6 -85 10 -27 4 -63 9 -80 11 -38 5 -226 18 -282 19 -24 1 -43 6 -43 11 0 7 -3
7 -8 0 -8 -12 -102 -14 -102 -2 0 5 -5 5 -11 2 -16 -11 -69 -12 -75 -3 -3 5
-10 5 -16 2 -6 -4 -54 -8 -106 -10 -92 -2 -196 -10 -277 -19 -22 -3 -60 -7
-85 -10 -25 -2 -45 -5 -45 -5 0 -1 -16 -3 -35 -5 -32 -3 -106 -16 -185 -31
-16 -3 -39 -7 -50 -9 -11 -1 -39 -8 -63 -14 -24 -7 -55 -14 -70 -16 -37 -5
-275 -71 -342 -94 -175 -62 -239 -85 -277 -102 -23 -11 -45 -19 -49 -19 -3 0
-40 -16 -81 -35 -41 -19 -81 -35 -89 -35 -8 0 -14 -4 -14 -8 0 -5 -18 -15 -41
-22 -22 -8 -42 -17 -45 -21 -6 -10 -96 -53 -106 -51 -5 1 -8 -2 -8 -6 0 -5
-16 -14 -35 -22 -19 -8 -35 -17 -35 -22 0 -4 -5 -8 -11 -8 -6 0 -44 -20 -83
-45 -40 -25 -78 -45 -84 -45 -5 0 -12 -4 -14 -8 -1 -5 -34 -29 -73 -53 -38
-24 -79 -51 -89 -61 -11 -10 -28 -20 -38 -24 -10 -3 -18 -10 -18 -15 0 -5 -4
-9 -10 -9 -5 0 -18 -6 -27 -14 -10 -8 -63 -50 -118 -93 -55 -42 -113 -90 -130
-106 -16 -15 -42 -35 -57 -45 -16 -9 -28 -21 -28 -27 0 -5 -14 -19 -30 -30
-17 -11 -97 -88 -178 -172 -134 -138 -169 -176 -233 -253 -11 -14 -33 -39 -47
-57 -15 -17 -34 -41 -42 -54 -8 -12 -23 -29 -32 -38 -10 -8 -18 -21 -18 -27 0
-7 -3 -14 -8 -16 -4 -1 -25 -28 -47 -58 -22 -30 -43 -56 -47 -58 -5 -2 -8 -8
-8 -14 0 -5 -11 -24 -25 -42 -14 -18 -25 -38 -25 -43 0 -6 -7 -13 -15 -17 -8
-3 -15 -10 -15 -15 0 -6 -23 -46 -50 -89 -28 -43 -50 -84 -50 -90 0 -7 -3 -12
-7 -12 -5 0 -26 -35 -48 -78 -22 -42 -44 -80 -48 -83 -5 -3 -8 -9 -8 -12 0 -4
-22 -53 -49 -109 -35 -71 -50 -95 -51 -78 0 14 -1 430 -2 925 l-2 900 32 23
c18 12 36 22 41 22 4 0 19 10 32 23 14 12 27 21 30 20 7 -2 151 77 173 95 9 8
17 12 17 9 0 -6 106 55 127 73 7 5 19 10 27 10 8 0 17 4 20 9 4 5 34 25 69 44
58 32 101 56 202 114 22 12 56 31 75 41 19 11 96 54 170 97 74 42 145 81 158
86 12 5 22 13 22 19 0 6 4 9 9 5 5 -3 16 0 23 7 13 13 79 50 163 93 22 11 42
23 45 26 3 3 34 21 70 40 36 19 67 37 70 40 3 3 55 33 115 66 127 69 178 98
220 124 17 11 37 22 45 26 35 17 346 193 357 203 7 5 17 10 23 10 6 0 16 5 23
11 19 16 257 149 267 149 6 0 10 4 10 9 0 9 43 28 47 20 1 -2 12 5 25 17 13
12 38 27 56 35 17 8 32 17 32 20 0 4 12 12 28 18 15 5 50 24 77 40 28 16 66
38 85 49 36 20 234 132 324 184 28 16 67 36 86 46 19 9 37 20 40 23 3 3 34 22
70 41 36 20 101 57 145 82 44 25 86 46 93 46 6 0 12 4 12 8 0 5 19 18 43 31
23 12 74 40 112 61 39 22 71 39 72 40 1 0 24 -13 50 -30z m288 -2414 c17 -3
50 -7 75 -10 66 -8 186 -27 253 -41 12 -2 36 -7 52 -10 69 -14 95 -20 115 -28
8 -4 26 -8 40 -10 14 -2 32 -6 40 -9 8 -3 49 -16 90 -28 41 -12 82 -24 90 -27
8 -3 20 -7 25 -9 45 -11 233 -89 345 -142 41 -20 77 -36 80 -35 3 1 12 -4 20
-11 8 -7 49 -30 90 -51 41 -21 86 -46 100 -55 14 -9 69 -45 122 -80 54 -34
108 -71 120 -81 11 -11 25 -19 29 -19 4 0 14 -6 21 -12 7 -7 56 -47 108 -89
157 -126 319 -280 421 -400 24 -28 53 -61 64 -74 23 -25 35 -41 85 -105 19
-25 38 -46 42 -48 5 -2 8 -8 8 -13 0 -5 20 -35 45 -68 25 -32 45 -64 45 -70 0
-6 4 -11 8 -11 5 0 14 -10 20 -22 15 -28 40 -70 73 -123 14 -22 40 -67 58
-100 18 -33 36 -64 39 -70 4 -5 7 -12 8 -15 6 -24 30 -70 36 -70 4 0 8 -8 8
-18 0 -10 4 -22 9 -28 9 -9 91 -198 95 -219 1 -5 8 -21 16 -35 7 -14 13 -27
13 -30 0 -3 1 -9 3 -15 2 -5 14 -44 28 -85 27 -84 50 -160 51 -175 5 -37 18
-85 24 -85 3 0 7 -10 7 -22 1 -13 5 -34 8 -48 9 -32 13 -55 21 -105 7 -49 13
-80 15 -80 2 0 5 -23 14 -100 4 -33 9 -73 11 -90 16 -107 23 -477 11 -615 -9
-119 -18 -205 -22 -225 -3 -11 -6 -36 -9 -55 -2 -19 -6 -46 -9 -60 -3 -14 -7
-36 -10 -50 -8 -42 -25 -125 -41 -197 -3 -13 -7 -35 -11 -50 -3 -15 -8 -31
-12 -37 -3 -6 -7 -15 -9 -21 -1 -5 -4 -21 -7 -34 -3 -13 -11 -40 -18 -60 -7
-20 -13 -38 -13 -41 -5 -24 -30 -97 -35 -105 -4 -5 -13 -28 -20 -50 -7 -22
-24 -64 -38 -94 -13 -30 -25 -60 -26 -65 -4 -22 -148 -301 -159 -308 -7 -4 -8
-8 -4 -8 4 0 -8 -25 -28 -55 -19 -31 -35 -58 -35 -61 0 -8 -173 -257 -190
-274 -3 -3 -23 -29 -45 -57 -21 -29 -43 -53 -47 -53 -4 0 -8 -4 -8 -10 0 -13
-43 -61 -183 -204 -132 -135 -126 -136 -93 12 2 9 7 37 10 62 3 25 8 57 11 72
3 15 7 52 9 82 3 31 7 60 11 66 3 5 1 10 -5 10 -7 0 -8 6 -2 18 7 14 9 307 2
307 -1 0 -3 18 -5 40 -2 22 -6 65 -10 95 -3 30 -9 76 -12 103 -3 26 -8 47 -12
47 -3 0 -6 12 -7 28 -2 55 -53 229 -111 382 -26 68 -139 300 -175 360 -69 114
-145 221 -226 319 -67 80 -256 265 -337 329 -44 35 -87 69 -95 75 -25 20 -152
102 -190 123 -19 10 -37 21 -40 24 -13 13 -70 40 -70 33 0 -4 -4 -3 -8 4 -15
23 -213 107 -397 168 -63 21 -235 62 -295 70 -25 3 -52 8 -61 11 -8 2 -47 7
-85 9 -38 3 -87 8 -109 10 -22 2 -110 6 -195 9 -85 2 -162 7 -170 10 -15 5
-81 16 -112 19 -10 1 -18 4 -18 8 0 4 -8 6 -17 4 -10 -1 -33 3 -51 11 -18 7
-36 13 -40 14 -11 0 -76 22 -87 29 -5 3 -16 6 -23 7 -20 3 -201 93 -247 122
-152 98 -309 242 -401 367 -16 22 -31 42 -34 45 -32 29 -153 262 -180 345 -7
22 -17 49 -21 60 -13 32 -47 175 -55 235 -4 30 -9 64 -10 75 -6 36 -6 259 0
290 2 17 8 54 11 84 4 30 9 62 11 73 2 10 6 28 9 39 7 33 35 132 42 149 3 8 7
17 7 20 11 51 131 289 173 340 6 8 32 42 57 75 78 104 276 295 305 295 6 0 11
5 11 12 0 6 3 9 6 6 3 -3 16 4 29 16 13 11 40 30 62 41 21 11 41 24 45 30 4 5
8 6 8 1 0 -5 9 -1 20 9 11 10 20 14 20 10 0 -4 8 -1 18 7 9 8 42 24 72 36 67
26 113 43 120 44 3 1 20 7 38 15 17 7 32 11 32 8 0 -3 8 -1 18 4 9 5 35 12 57
16 22 4 74 13 115 20 71 13 475 13 555 1z m-2681 -943 c-8 -26 -16 -61 -19
-78 -2 -16 -6 -41 -9 -54 -3 -13 -8 -49 -12 -80 -3 -31 -9 -65 -11 -76 -3 -11
-7 -114 -8 -230 -2 -163 1 -240 16 -344 10 -74 21 -142 24 -150 2 -9 7 -34 11
-56 3 -22 10 -48 15 -57 5 -10 8 -18 5 -18 -2 0 6 -34 19 -75 12 -41 20 -77
17 -80 -3 -3 -1 -5 5 -5 5 0 10 -7 10 -15 0 -8 8 -34 18 -57 9 -24 21 -52 25
-63 4 -11 15 -36 23 -55 9 -19 17 -39 18 -45 13 -59 239 -428 303 -497 15 -15
26 -29 26 -32 0 -11 242 -266 253 -266 3 0 21 -15 39 -33 19 -18 56 -48 81
-67 26 -18 47 -37 47 -42 0 -5 4 -7 9 -4 5 4 11 3 13 -2 7 -18 236 -164 278
-177 11 -3 20 -11 20 -16 0 -5 3 -8 8 -7 4 1 36 -12 72 -29 102 -49 314 -133
333 -132 3 0 37 -11 69 -23 15 -5 32 -7 37 -3 6 3 11 1 11 -5 0 -6 8 -10 18
-8 9 1 22 0 27 -4 6 -3 26 -9 45 -12 19 -3 44 -7 55 -10 115 -23 241 -35 420
-41 106 -3 223 -12 275 -20 76 -12 203 -46 218 -57 6 -6 12 -8 12 -4 0 29 404
-179 418 -216 2 -4 8 -8 13 -8 26 0 309 -283 309 -309 0 -4 8 -16 18 -27 51
-56 137 -218 188 -351 13 -35 21 -63 18 -63 -4 0 -1 -7 6 -15 6 -8 13 -24 15
-37 6 -36 10 -52 16 -63 4 -5 5 -18 4 -27 -2 -10 0 -18 3 -18 4 0 8 -12 8 -27
1 -16 5 -48 9 -73 15 -88 10 -350 -9 -450 -11 -59 -29 -137 -34 -145 -4 -5 -7
-19 -8 -30 -3 -48 -113 -290 -160 -352 -13 -17 -24 -35 -24 -38 0 -27 -200
-255 -291 -330 -39 -32 -168 -125 -175 -125 -3 0 -26 -14 -52 -32 -26 -18 -48
-31 -49 -30 -2 1 -27 -9 -55 -22 -144 -65 -230 -93 -383 -122 -95 -19 -414
-25 -545 -11 -36 3 -92 9 -125 12 -33 3 -82 10 -110 15 -27 5 -66 12 -85 15
-47 7 -104 19 -152 31 -13 3 -34 7 -46 10 -42 9 -125 31 -202 55 -41 12 -77
23 -80 24 -3 1 -14 5 -25 9 -11 4 -31 12 -45 16 -14 4 -34 12 -45 16 -11 4
-22 8 -25 9 -3 1 -18 8 -35 15 -16 7 -35 14 -41 15 -43 10 -333 153 -454 225
-161 95 -363 242 -514 372 -81 70 -268 257 -336 337 -30 35 -59 69 -65 75 -5
6 -22 27 -37 48 -15 20 -34 43 -42 51 -8 8 -12 17 -9 21 4 3 1 6 -5 6 -5 0
-20 15 -31 33 -11 18 -29 44 -41 56 -11 13 -20 28 -20 33 0 8 -9 20 -37 53 -7
7 -13 16 -13 19 0 3 -13 24 -29 48 -33 50 -161 277 -161 287 0 3 -11 26 -24
51 -34 65 -106 236 -106 254 0 8 -4 16 -8 18 -8 3 -89 245 -95 283 -1 11 -6
25 -9 31 -4 6 -9 21 -12 35 -3 13 -7 33 -10 44 -10 40 -47 221 -52 255 -3 19
-7 48 -11 64 -3 16 -7 55 -10 85 -2 31 -7 79 -11 106 -4 28 -7 83 -7 122 0 40
-2 73 -5 73 -3 0 -4 46 -4 102 2 137 17 403 24 403 0 0 3 20 5 45 5 63 13 113
35 227 27 132 44 205 74 308 1 6 8 30 15 55 18 62 116 322 147 389 49 105 133
270 159 310 14 22 25 45 25 51 0 5 5 10 10 10 6 0 10 7 10 15 0 8 5 15 12 15
6 0 9 3 6 6 -6 5 67 123 95 154 8 8 22 30 33 48 10 17 22 32 26 32 4 0 8 4 8
10 0 5 8 20 19 32 10 13 56 68 101 123 46 55 112 130 148 167 36 36 67 70 71
75 9 12 100 93 105 93 2 0 -2 -21 -10 -47z m3345 -6749 c-7 -9 -236 -239 -507
-510 l-494 -494 -247 248 c-736 734 -766 765 -735 758 16 -3 40 -9 54 -12 95
-22 397 -71 488 -79 285 -25 599 -25 862 0 63 6 215 26 230 30 8 2 38 7 65 11
28 3 57 8 65 9 8 2 60 13 114 24 55 12 102 23 104 26 13 12 13 3 1 -11z"/>
</g>
</svg>
